<svg xmlns="http://www.w3.org/2000/svg" width="8.919" height="13.981" viewBox="0 0 8.919 13.981">
  <g id="attachment" transform="translate(-0.147 -0.217)">
    <path id="Path" d="M4.468,13.974a4.153,4.153,0,0,1-3.27-1.3A6.186,6.186,0,0,1,.041,8.235V3.087C.054,2.021.544,0,2.506,0S4.959,2.021,4.959,3.087v5.2a.49.49,0,0,1-.981,0v-5.2c0-.084,0-2.112-1.471-2.112S1.035,3,1.035,3.087v5.2c0,.084-.275,2.4.922,3.737A3.189,3.189,0,0,0,4.468,13a3.189,3.189,0,0,0,2.511-.975,5.361,5.361,0,0,0,.929-3.679V.487a.49.49,0,0,1,.981,0v7.8a6.226,6.226,0,0,1-1.164,4.381A4.153,4.153,0,0,1,4.468,13.974Z" transform="translate(0.147 0.217)" fill="#9fa1b6"/>
  </g>
</svg>
