<svg xmlns="http://www.w3.org/2000/svg" width="19.509" height="19.161" viewBox="0 0 19.509 19.161">
  <g id="boxes" transform="translate(-0.23 -0.42)">
    <path id="Shape" d="M6.742,8.66H1.919A1.92,1.92,0,0,1,0,6.731v-4.8A1.912,1.912,0,0,1,.562.563,1.934,1.934,0,0,1,1.919,0H6.741A1.907,1.907,0,0,1,8.1.563a1.944,1.944,0,0,1,.562,1.368v4.8A1.92,1.92,0,0,1,6.742,8.66ZM1.93,1.5a.431.431,0,0,0-.43.43v4.8a.431.431,0,0,0,.43.43h4.8a.431.431,0,0,0,.43-.43v-4.8a.431.431,0,0,0-.43-.43Z" transform="translate(5.67 0.42)" fill="#242851"/>
    <path id="Shape-2" data-name="Shape" d="M6.777,8.661H1.923A1.922,1.922,0,0,1,0,6.73V1.93A1.919,1.919,0,0,1,1.918,0H6.783A1.911,1.911,0,0,1,8.138.562,1.936,1.936,0,0,1,8.7,1.93v4.8A1.92,1.92,0,0,1,6.777,8.661ZM1.97,1.5a.43.43,0,0,0-.43.43v4.8a.43.43,0,0,0,.43.43h4.8a.43.43,0,0,0,.43-.43V1.93a.43.43,0,0,0-.43-.43Z" transform="translate(0.23 10.92)" fill="#242851"/>
    <path id="Shape-3" data-name="Shape" d="M6.77,8.661H1.93A1.932,1.932,0,0,1,0,6.73V1.93A1.928,1.928,0,0,1,1.93,0H6.743A1.912,1.912,0,0,1,8.1.562,1.942,1.942,0,0,1,8.669,1.93v4.8A1.937,1.937,0,0,1,6.77,8.661ZM1.93,1.5a.43.43,0,0,0-.43.43v4.8a.431.431,0,0,0,.43.431h4.8a.443.443,0,0,0,.44-.431V1.93a.442.442,0,0,0-.44-.43Z" transform="translate(11.07 10.92)" fill="#242851"/>
  </g>
</svg>
