<svg xmlns="http://www.w3.org/2000/svg" width="18.899" height="18.958" viewBox="0 0 18.899 18.958">
  <g id="chat-code" transform="translate(-0.922 -0.042)">
    <path id="Combined_Shape" data-name="Combined Shape" d="M1.531,18.958H1.494A1.494,1.494,0,0,1,.131,16.853L1.6,13.571a9.195,9.195,0,1,1,9.773,4.7,10.06,10.06,0,0,1-1.684.148A9.215,9.215,0,0,1,5.8,17.529L2.025,18.874a1.383,1.383,0,0,1-.472.084Zm.7-11.578a7.7,7.7,0,0,0,.842,5.69.8.8,0,0,1,.117.836L1.688,17.326l3.863-1.379a.789.789,0,0,1,.815.111l.02.016a7.613,7.613,0,1,0,4-14.451c-.251-.024-.5-.037-.748-.037A7.631,7.631,0,0,0,2.236,7.379Zm3.842,3.329a.75.75,0,0,1-.1-1.493l.1-.007h5a.75.75,0,0,1,.1,1.493l-.1.007Zm0-3a.75.75,0,0,1-.1-1.493l.1-.006h8a.75.75,0,0,1,.1,1.493l-.1.006Z" transform="translate(0.922 0.042)" fill="#242851"/>
  </g>
</svg>
