<svg xmlns="http://www.w3.org/2000/svg" width="21.5" height="14.581" viewBox="0 0 21.5 14.581">
  <g id="dashboard" transform="translate(-0.25 -0.779)">
    <path id="Combined_Shape" data-name="Combined Shape" d="M1.053,14.559A.75.75,0,0,1,.5,13.991a10.75,10.75,0,1,1,20.5,0,.739.739,0,0,1-.71.48.66.66,0,0,1-.23,0H1.625a.749.749,0,0,1-.572.089Zm18.683-1.589a9.25,9.25,0,1,0-17.971,0Zm-9.516-1.72a.75.75,0,0,1,0-1.06l4-4a.75.75,0,0,1,1.06,1.03l-4,4a.741.741,0,0,1-.53.25h0A.741.741,0,0,1,10.22,11.251Z" transform="translate(0.25 0.779)" fill="#242851"/>
  </g>
</svg>
