<svg xmlns="http://www.w3.org/2000/svg" width="9.722" height="8.478" viewBox="0 0 9.722 8.478">
  <g id="download_copy" data-name="download copy" transform="translate(-0.139 -0.206)">
    <path id="Path" d="M2.083,3.906A2.089,2.089,0,0,1,0,1.828V.439A.422.422,0,0,1,.417.017h0A.422.422,0,0,1,.833.434V1.822a1.256,1.256,0,0,0,1.25,1.25H7.639a1.244,1.244,0,0,0,1.244-1.25V.434A.411.411,0,0,1,9.306,0h0a.417.417,0,0,1,.417.411V1.8A2.078,2.078,0,0,1,7.639,3.889H2.083Z" transform="translate(0.139 4.778)"/>
    <path id="Path-2" data-name="Path" d="M.417,5.833A.422.422,0,0,1,0,5.417v-5A.422.422,0,0,1,.417,0h0A.417.417,0,0,1,.833.417v5a.411.411,0,0,1-.411.417Z" transform="translate(4.583 0.206)"/>
    <path id="Path-3" data-name="Path" d="M2.794,3.21A.428.428,0,0,1,2.5,3.088L.133.733A.417.417,0,1,1,.722.144L2.794,2.2,4.855.133a.417.417,0,1,1,.589.589L3.094,3.083a.417.417,0,0,1-.3.128Z" transform="translate(2.206 3.523)"/>
  </g>
</svg>
