<svg id="_300221" data-name="300221" xmlns="http://www.w3.org/2000/svg" width="25" height="25" viewBox="0 0 25 25">
  <path id="Path" d="M11.013,0H.815A.815.815,0,0,0,0,.815V4.073a.815.815,0,0,0,.815.815H6.558a7.666,7.666,0,0,1-3.3,3.867l2.449,4.239a12.257,12.257,0,0,0,6.25-10.719,8.262,8.262,0,0,0-.14-1.6A.819.819,0,0,0,11.013,0Z" transform="translate(13.044 10.326)" fill="#167ee6"/>
  <path id="Path-2" data-name="Path" d="M10.82,3.808A7.607,7.607,0,0,1,4.239,0L0,2.443A12.483,12.483,0,0,0,10.82,8.7a12.479,12.479,0,0,0,6.25-1.674V7.019L14.621,2.78A7.552,7.552,0,0,1,10.82,3.808Z" transform="translate(1.68 16.301)" fill="#12b347"/>
  <path id="Path-3" data-name="Path" d="M6.25,4.245V4.239L3.8,0A7.552,7.552,0,0,1,0,1.028V5.919A12.479,12.479,0,0,0,6.25,4.245Z" transform="translate(12.5 19.081)" fill="#0f993e"/>
  <path id="Path-4" data-name="Path" d="M4.891,6.244a7.552,7.552,0,0,1,1.027-3.8L1.68,0a12.443,12.443,0,0,0,0,12.488l4.239-2.443A7.552,7.552,0,0,1,4.891,6.244Z" transform="translate(0 6.256)" fill="#ffd500"/>
  <path id="Path-5" data-name="Path" d="M10.82,4.891A7.574,7.574,0,0,1,15.65,6.626a.812.812,0,0,0,1.093-.049l2.308-2.308A.821.821,0,0,0,19,3.067,12.473,12.473,0,0,0,0,6.256L4.239,8.7A7.607,7.607,0,0,1,10.82,4.891Z" transform="translate(1.68)" fill="#ff4b26"/>
  <path id="Path-6" data-name="Path" d="M4.831,6.626a.812.812,0,0,0,1.093-.049L8.232,4.268a.821.821,0,0,0-.047-1.2A12.462,12.462,0,0,0,0,0V4.891A7.574,7.574,0,0,1,4.831,6.626Z" transform="translate(12.5)" fill="#d93f21"/>
</svg>
