<svg xmlns="http://www.w3.org/2000/svg" width="21.9" height="19.702" viewBox="0 0 21.9 19.702">
  <path id="Path" d="M10.949,19.7a1.3,1.3,0,0,1-.888-.351L9.5,18.83l-2-1.812-3.28-2.881-.129-.116-.124-.111L3.5,13.487a19.558,19.558,0,0,1-1.44-1.465A7.349,7.349,0,0,1,0,6.939,7.433,7.433,0,0,1,1.753,2,5.777,5.777,0,0,1,6.139,0,5.371,5.371,0,0,1,9.61,1.264,7.228,7.228,0,0,1,10.9,2.656l.049.072L11,2.656a7.171,7.171,0,0,1,1.049-1.183l.241-.208A5.371,5.371,0,0,1,15.761,0a5.774,5.774,0,0,1,4.385,2A7.435,7.435,0,0,1,21.9,6.939a7.342,7.342,0,0,1-2.061,5.083c-.25.287-.523.577-.834.885l-.393.381-.437.406-.489.443-.266.236L15.9,15.7l-1.379,1.215L13.151,18.15l-1.312,1.2A1.3,1.3,0,0,1,10.949,19.7ZM6.139,1.375c-2.716,0-4.765,2.392-4.765,5.564A5.988,5.988,0,0,0,3.1,11.118l.266.3.29.3.319.318.352.339c.058.055.121.113.192.178l.412.378.461.411,3,2.636,1.442,1.3,1.113,1.02.526-.482,2.209-2,2.79-2.446.5-.441.414-.378.371-.349.336-.33.3-.31c.156-.164.286-.307.409-.448a5.989,5.989,0,0,0,1.722-4.178c0-3.172-2.048-5.564-4.764-5.564a4.023,4.023,0,0,0-2.6.953,6.4,6.4,0,0,0-1.6,2.042l-.611,1.18L10.34,4.37a6.427,6.427,0,0,0-1.6-2.042A4.024,4.024,0,0,0,6.139,1.375Z" transform="translate(0 0)" fill="#242851"/>
</svg>
