<svg xmlns="http://www.w3.org/2000/svg" width="27" height="27" viewBox="0 0 27 27">
  <g id="Icon_Facebook" data-name="Icon/Facebook" transform="translate(0)">
    <g id="instagram" transform="translate(0 0)">
      <path id="Shape" d="M13.5,27c-2.4,0-4.537-.037-5.569-.1a8,8,0,0,1-5.656-2.181A7.941,7.941,0,0,1,.095,19.066c-.127-2.238-.127-8.9,0-11.14A7.976,7.976,0,0,1,2.276,2.271,7.972,7.972,0,0,1,7.931.095C8.962.036,11.1,0,13.5,0s4.537.036,5.568.095a7.991,7.991,0,0,1,5.657,2.182A7.93,7.93,0,0,1,26.9,7.933c.128,2.238.128,8.9,0,11.134a7.987,7.987,0,0,1-2.179,5.657A7.927,7.927,0,0,1,19.068,26.9C18.037,26.963,15.9,27,13.5,27Zm0-2.433c.279,0,.6,0,.96.007.431,0,.919.009,1.425.009a19.014,19.014,0,0,0,5.571-.558,4.562,4.562,0,0,0,2.567-2.567c.6-1.517.57-4.811.548-6.99,0-.36-.007-.687-.007-.968s0-.608.007-.968c.022-2.177.056-5.468-.548-6.99A4.562,4.562,0,0,0,21.46,2.976a19.373,19.373,0,0,0-5.625-.557c-.5,0-.971,0-1.39.009-.349,0-.667.006-.941.006s-.6,0-.96-.007c-.431,0-.919-.009-1.425-.009a19.016,19.016,0,0,0-5.571.558A4.56,4.56,0,0,0,2.98,5.542c-.6,1.524-.569,4.83-.549,7.017,0,.349.006.667.006.941s0,.6-.007.96c-.022,2.181-.055,5.474.549,7a4.56,4.56,0,0,0,2.567,2.567,19.373,19.373,0,0,0,5.625.557c.5,0,.971,0,1.39-.009C12.911,24.57,13.229,24.567,13.5,24.567Zm0-4.145A6.922,6.922,0,1,1,20.424,13.5,6.929,6.929,0,0,1,13.5,20.422ZM13.5,9A4.5,4.5,0,1,0,18,13.5,4.5,4.5,0,0,0,13.5,9Zm7.2-1.09a1.615,1.615,0,1,1,1.614-1.616A1.617,1.617,0,0,1,20.706,7.91Z" transform="translate(0 0)" fill="#e4405f"/>
    </g>
  </g>
</svg>
