<svg xmlns="http://www.w3.org/2000/svg" width="19.317" height="19.372" viewBox="0 0 19.317 19.372">
  <g id="settings" transform="translate(-0.342 -0.319)">
    <path id="Shape" d="M9.659,19.373h0a2.454,2.454,0,0,1-1.9-.909l-.8-.909a1.134,1.134,0,0,0-.859-.394c-.026,0-.052,0-.078,0L4.8,17.272c-.069.006-.14.009-.21.009a2.485,2.485,0,0,1-1.763-.726A2.527,2.527,0,0,1,2.1,14.582l.1-1.264a1.158,1.158,0,0,0-.4-.909l-.909-.791a2.49,2.49,0,0,1,0-3.81l.909-.8a1.131,1.131,0,0,0,.381-.963L2.067,4.819a2.536,2.536,0,0,1,.719-1.973A2.5,2.5,0,0,1,4.55,2.11c.069,0,.139,0,.207.009l1.264.1h.052a1.118,1.118,0,0,0,.858-.4L7.721.91A2.481,2.481,0,0,1,9.621,0a2.45,2.45,0,0,1,1.9.909l.8.909a1.151,1.151,0,0,0,.86.387c.041,0,.078,0,.113-.005l1.229-.109c.079-.008.16-.012.24-.012a2.5,2.5,0,0,1,2.486,2.739l-.127,1.227a1.156,1.156,0,0,0,.4.909l.909.79a2.493,2.493,0,0,1,0,3.81l-.909.8a1.128,1.128,0,0,0-.383.963l.109,1.227a2.542,2.542,0,0,1-.717,1.974,2.51,2.51,0,0,1-1.769.736c-.066,0-.135,0-.2-.008l-1.264-.1h-.032a1.16,1.16,0,0,0-.877.4l-.79.909a2.487,2.487,0,0,1-1.9.909l-.035.008ZM6.113,15.8h0a2.5,2.5,0,0,1,1.9.909l.8.909a1.127,1.127,0,0,0,.864.4h.055a1.092,1.092,0,0,0,.854-.411l.79-.909a2.481,2.481,0,0,1,1.93-.916c.063,0,.123,0,.18.006l1.227.091a1.02,1.02,0,0,0,.118.006,1.11,1.11,0,0,0,.792-.334,1.138,1.138,0,0,0,.327-.909l-.1-1.219a2.483,2.483,0,0,1,.909-2.108l.909-.8a1.129,1.129,0,0,0,.4-.864,1.09,1.09,0,0,0-.411-.909l-.907-.792a2.5,2.5,0,0,1-.909-2.108l.09-1.227a1.118,1.118,0,0,0-.329-.9,1.136,1.136,0,0,0-.794-.328,1,1,0,0,0-.1,0l-1.217.1c-.063,0-.126.007-.186.007a2.468,2.468,0,0,1-1.925-.916l-.8-.909a1.121,1.121,0,0,0-.917-.328H9.6a1.085,1.085,0,0,0-.854.411l-.792.909a2.523,2.523,0,0,1-1.945.915c-.052,0-.107,0-.163-.005L4.622,3.491a1.141,1.141,0,0,0-.12-.007,1.108,1.108,0,0,0-.789.334,1.133,1.133,0,0,0-.327.909l.1,1.217a2.484,2.484,0,0,1-.909,2.11l-.909.8a1.123,1.123,0,0,0-.4.863,1.1,1.1,0,0,0,.409.909l.909.791a2.5,2.5,0,0,1,.909,2.108L3.4,14.755a1.127,1.127,0,0,0,.329.895,1.114,1.114,0,0,0,.793.328,1.021,1.021,0,0,0,.1,0l1.219-.1.264-.073Z" transform="translate(0.342 0.318)" fill="#242851"/>
    <path id="Shape-2" data-name="Shape" d="M3.41,6.818A3.409,3.409,0,1,1,6.819,3.41,3.413,3.413,0,0,1,3.41,6.818Zm0-5.456A2.045,2.045,0,1,0,5.454,3.408,2.048,2.048,0,0,0,3.41,1.363Z" transform="translate(6.591 6.591)" fill="#242851"/>
  </g>
</svg>
