<svg xmlns="http://www.w3.org/2000/svg" width="15.141" height="16.061" viewBox="0 0 15.141 16.061">
  <g id="share" transform="translate(0)">
    <path id="Path_535" data-name="Path 535" d="M26.066,10.319a2.874,2.874,0,0,0-2.274,1.121L19.379,8.975a2.881,2.881,0,0,0,.16-.947,2.818,2.818,0,0,0-.163-.95l4.409-2.461a2.868,2.868,0,1,0-.594-1.744,2.8,2.8,0,0,0,.163.95L18.949,6.283a2.869,2.869,0,1,0,.007,3.485l4.409,2.465a2.87,2.87,0,1,0,2.7-1.914Zm0-9.415A1.971,1.971,0,1,1,24.1,2.875,1.973,1.973,0,0,1,26.066.9ZM16.675,10a1.971,1.971,0,1,1,1.971-1.971A1.973,1.973,0,0,1,16.675,10Zm9.391,5.159a1.971,1.971,0,1,1,1.971-1.971A1.973,1.973,0,0,1,26.066,15.158Z" transform="translate(-13.8 0)" fill="#fff"/>
  </g>
</svg>
