<svg xmlns="http://www.w3.org/2000/svg" width="15.23" height="17.5" viewBox="0 0 15.23 17.5">
  <g id="signout" transform="translate(15.63 -0.25)">
    <path id="Combined_Shape" data-name="Combined Shape" d="M-1.1,16.4A3.739,3.739,0,0,0,0,13.75v-10A3.76,3.76,0,0,0-3.71,0H-6.22a.75.75,0,0,0-.75.75.75.75,0,0,0,.75.751h2.5A2.27,2.27,0,0,1-1.47,3.75v10a2.241,2.241,0,0,1-.66,1.588,2.24,2.24,0,0,1-1.59.653h-2.5a.75.75,0,0,0-.75.75.75.75,0,0,0,.75.75h2.47v.01h.01A3.74,3.74,0,0,0-1.1,16.4ZM-7.96,13.53l4.25-4.25a.75.75,0,0,0,0-1.06L-7.95,3.96A.751.751,0,0,0-8.7,3.705a.751.751,0,0,0-.559.564A.749.749,0,0,0-9,5.02l2.946,2.97H-14.48a.75.75,0,0,0-.75.75.75.75,0,0,0,.75.75h8.438L-9.02,12.46a.75.75,0,0,0,0,1.06.738.738,0,0,0,.53.23h.007A.731.731,0,0,0-7.96,13.53Z" transform="translate(-0.4 0.25)" fill="#242851"/>
  </g>
</svg>
