<svg id="translator" xmlns="http://www.w3.org/2000/svg" width="20" height="20" viewBox="0 0 20 20">
  <path id="Combined_Shape" data-name="Combined Shape" d="M10.446,20a2.933,2.933,0,0,1-2.93-2.929V12.092H2.93A2.933,2.933,0,0,1,0,9.163V2.93A2.933,2.933,0,0,1,2.93,0H9.554a2.933,2.933,0,0,1,2.93,2.93V8.168a1.825,1.825,0,0,1-1.823,1.823H9.34a.653.653,0,0,0-.652.652V17.07a1.76,1.76,0,0,0,1.758,1.758H17.07a1.76,1.76,0,0,0,1.758-1.758V11.243A1.76,1.76,0,0,0,17.07,9.485H14.164a.581.581,0,0,1-.545-.37.563.563,0,0,1-.041-.216.587.587,0,0,1,.586-.586H17.07A2.933,2.933,0,0,1,20,11.243V17.07A2.933,2.933,0,0,1,17.07,20ZM1.172,2.93V9.163A1.76,1.76,0,0,0,2.93,10.921H7.517v-.277A1.826,1.826,0,0,1,9.34,8.82h1.32a.652.652,0,0,0,.651-.652V2.93A1.76,1.76,0,0,0,9.554,1.172H2.93A1.76,1.76,0,0,0,1.172,2.93ZM11.749,16.778a1.661,1.661,0,0,1-.616-1.372,1.842,1.842,0,0,1,1.47-1.729,1.479,1.479,0,0,1-.973-1.428,1.548,1.548,0,0,1,1.6-1.6,1.5,1.5,0,0,1,1.61,1.659h-.931a.7.7,0,0,0-.728-.448c-.455,0-.728.2-.728.533,0,.4.427.616,1.148.616a5.972,5.972,0,0,0,.9-.07l.525-.063V14.02l-.434.041c-1.742.175-2.555.5-2.555,1.169,0,.526.511.784,1.436.784a4.959,4.959,0,0,0,1.848-.349v1.246a4.871,4.871,0,0,1-1.9.364A2.6,2.6,0,0,1,11.749,16.778ZM7.485,7.826l-.346-.815H5.345L5,7.826a.586.586,0,0,1-.539.357.562.562,0,0,1-.229-.047.584.584,0,0,1-.311-.768L5.7,3.171a.586.586,0,0,1,1.079,0l1.782,4.2a.586.586,0,1,1-1.078.457ZM5.843,5.84h.8l-.4-.941Z" fill="#242851"/>
</svg>
