<svg id="Icon_Facebook" data-name="Icon/Facebook" xmlns="http://www.w3.org/2000/svg" width="28" height="27" viewBox="0 0 28 27">
  <path id="Icon_Twitter" data-name="Icon/Twitter" d="M27.282,2.631a11.157,11.157,0,0,1-3.22.866A5.429,5.429,0,0,0,26.52.416a10.975,10.975,0,0,1-3.549,1.35,5.6,5.6,0,0,0-8.041-.13,5.389,5.389,0,0,0-1.636,3.955,6.206,6.206,0,0,0,.138,1.281A15.581,15.581,0,0,1,7,5.15,15.852,15.852,0,0,1,1.9,1.021a5.477,5.477,0,0,0-.762,2.822,5.446,5.446,0,0,0,.675,2.666A5.585,5.585,0,0,0,3.635,8.5a5.547,5.547,0,0,1-2.527-.71v.069A5.4,5.4,0,0,0,2.38,11.416a5.5,5.5,0,0,0,3.211,1.93,5.793,5.793,0,0,1-1.471.19,7.133,7.133,0,0,1-1.056-.086,5.6,5.6,0,0,0,5.228,3.878A10.948,10.948,0,0,1,1.35,19.716,11.9,11.9,0,0,1,0,19.647a15.528,15.528,0,0,0,8.586,2.51,16.336,16.336,0,0,0,5.591-.943,14.211,14.211,0,0,0,4.466-2.527,16.913,16.913,0,0,0,3.194-3.644,16.249,16.249,0,0,0,2-4.3,15.891,15.891,0,0,0,.658-4.492q0-.485-.017-.727A11.71,11.71,0,0,0,27.282,2.631Z" transform="translate(0 3.41)" fill="#5eb2ef"/>
</svg>
