<svg xmlns="http://www.w3.org/2000/svg" width="19.5" height="19.5" viewBox="0 0 19.5 19.5">
  <g id="user" transform="translate(-0.25 -0.25)">
    <path id="Combined_Shape" data-name="Combined Shape" d="M18,18.75a7.26,7.26,0,0,0-7.25-7.25h-2A7.259,7.259,0,0,0,1.5,18.75a.75.75,0,1,1-1.5,0,8.773,8.773,0,0,1,6.3-8.4,5.754,5.754,0,1,1,6.884,0,8.774,8.774,0,0,1,6.312,8.4.75.75,0,1,1-1.5,0ZM5.5,5.75A4.25,4.25,0,1,0,9.75,1.5,4.255,4.255,0,0,0,5.5,5.75Z" transform="translate(0.25 0.25)" fill="#242851"/>
  </g>
</svg>
