<?xml version="1.0" encoding="UTF-8"?>
<svg width="59px" height="24px" viewBox="0 0 59 24" version="1.1" xmlns="http://www.w3.org/2000/svg" xmlns:xlink="http://www.w3.org/1999/xlink">
    <title>Group 9</title>
    <g id="Arabic" stroke="none" stroke-width="1" fill="none" fill-rule="evenodd">
        <g id="Desktop-HD_rtl" transform="translate(-1316.000000, -30.000000)">
            <g id="Group-9" transform="translate(1316.000000, 30.240000)">
                <g id="Group" transform="translate(0.000000, 14.760000)" fill="#FCB52D">
                    <path d="M4,8 C5.09803922,8 6.03921569,7.60784314 6.82352941,6.82352941 C7.60784314,6.03921569 8,5.09803922 8,4 C8,2.90196078 7.60784314,1.96078431 6.82352941,1.17647059 C6.03921569,0.392156863 5.09803922,0 4,0 C2.90196078,0 1.96078431,0.392156863 1.17647059,1.17647059 C0.392156863,1.96078431 0,2.90196078 0,4 C0,5.09803922 0.392156863,6.03921569 1.17647059,6.82352941 C1.96078431,7.60784314 2.90196078,8 4,8 Z" id="Path"></path>
                </g>
                <path d="M53.118,4.012 C53.3446667,4.012 53.458,3.89866667 53.458,3.672 L53.458,3.672 L53.458,0.34 C53.458,0.113333333 53.3446667,2.50466314e-13 53.118,2.50466314e-13 L53.118,2.50466314e-13 L49.718,2.50466314e-13 C49.4913333,2.50466314e-13 49.378,0.113333333 49.378,0.34 L49.378,0.34 L49.378,3.672 C49.378,3.89866667 49.4913333,4.012 49.718,4.012 L49.718,4.012 L53.118,4.012 Z M58.388,4.012 C58.6146667,4.012 58.728,3.89866667 58.728,3.672 L58.728,3.672 L58.728,0.34 C58.728,0.113333333 58.6146667,2.50466314e-13 58.388,2.50466314e-13 L58.388,2.50466314e-13 L54.954,2.50466314e-13 C54.7273333,2.50466314e-13 54.614,0.113333333 54.614,0.34 L54.614,0.34 L54.614,3.672 C54.614,3.89866667 54.7273333,4.012 54.954,4.012 L54.954,4.012 L58.388,4.012 Z M52.71,21.76 C54.138,21.76 55.158,21.4143333 55.77,20.723 C56.382,20.0316667 56.688,18.9493333 56.688,17.476 L56.688,17.476 L56.688,7.786 C56.688,7.55933333 56.5746667,7.446 56.348,7.446 L56.348,7.446 L52.234,7.446 C52.0073333,7.446 51.894,7.55933333 51.894,7.786 L51.894,7.786 L51.894,15.844 C51.894,16.524 51.7636667,16.9943333 51.503,17.255 C51.2423333,17.5156667 50.8286667,17.646 50.262,17.646 L50.262,17.646 L48.154,17.646 C47.2473333,17.646 46.794,18.3713333 46.794,19.822 C46.794,20.5473333 46.9073333,21.0516667 47.134,21.335 C47.3606667,21.6183333 47.7006667,21.76 48.154,21.76 L48.154,21.76 L52.71,21.76 Z M48.154,21.76 C48.63,21.76 48.9756667,21.6353333 49.191,21.386 C49.4063333,21.1366667 49.514,20.5926667 49.514,19.754 C49.514,19.006 49.4006667,18.4676667 49.174,18.139 C48.9473333,17.8103333 48.6073333,17.646 48.154,17.646 L48.154,17.646 L43.768,17.646 C43.292,17.646 42.9633333,17.816 42.782,18.156 C42.6006667,18.496 42.51,19.0626667 42.51,19.856 C42.51,20.604 42.6063333,21.1083333 42.799,21.369 C42.9916667,21.6296667 43.3146667,21.76 43.768,21.76 L43.768,21.76 L48.154,21.76 Z M43.768,21.76 C44.244,21.76 44.5896667,21.6353333 44.805,21.386 C45.0203333,21.1366667 45.128,20.5926667 45.128,19.754 C45.128,19.006 45.0146667,18.4676667 44.788,18.139 C44.5613333,17.8103333 44.2213333,17.646 43.768,17.646 L43.768,17.646 L39.382,17.646 C38.906,17.646 38.5773333,17.816 38.396,18.156 C38.2146667,18.496 38.124,19.0626667 38.124,19.856 C38.124,20.604 38.2203333,21.1083333 38.413,21.369 C38.6056667,21.6296667 38.9286667,21.76 39.382,21.76 L39.382,21.76 L43.768,21.76 Z M28.842,21.998 C30.066,21.998 31.1936667,21.8336667 32.225,21.505 C33.2563333,21.1763333 34.112,20.604 34.792,19.788 C35.064,20.2413333 35.3813333,20.5983333 35.744,20.859 C36.1066667,21.1196667 36.492,21.318 36.9,21.454 C37.308,21.59 37.7273333,21.675 38.158,21.709 C38.5886667,21.743 39.008,21.76 39.416,21.76 C40.3226667,21.76 40.776,21.0686667 40.776,19.686 C40.776,18.9606667 40.6626667,18.4393333 40.436,18.122 C40.2093333,17.8046667 39.8693333,17.646 39.416,17.646 L39.416,17.646 L38.43,17.646 C37.8406667,17.646 37.3533333,17.4703333 36.968,17.119 C36.5826667,16.7676667 36.3673333,16.218 36.322,15.47 C36.322,15.334 36.3276667,15.1923333 36.339,15.045 C36.3503333,14.8976667 36.356,14.7446667 36.356,14.586 C36.356,12.002 35.676,10.0696667 34.316,8.789 C32.956,7.50833333 31.1313333,6.868 28.842,6.868 C26.4393333,6.868 24.592,7.47433333 23.3,8.687 C22.008,9.89966667 21.362,11.6393333 21.362,13.906 L21.362,13.906 L21.362,14.586 C21.3166667,15.7646667 21.0843333,16.5693333 20.665,17 C20.2456667,17.4306667 19.7753333,17.646 19.254,17.646 L19.254,17.646 L18.268,17.646 C17.7693333,17.646 17.418,17.8046667 17.214,18.122 C17.01,18.4393333 16.908,18.9833333 16.908,19.754 C16.908,20.502 17.0213333,21.0233333 17.248,21.318 C17.4746667,21.6126667 17.8146667,21.76 18.268,21.76 C18.608,21.76 18.9933333,21.743 19.424,21.709 C19.8546667,21.675 20.291,21.5956667 20.733,21.471 C21.175,21.3463333 21.6,21.1593333 22.008,20.91 C22.416,20.6606667 22.7446667,20.332 22.994,19.924 C23.674,20.6946667 24.5183333,21.233 25.527,21.539 C26.5356667,21.845 27.6406667,21.998 28.842,21.998 Z M28.842,17.884 C27.9126667,17.884 27.2156667,17.629 26.751,17.119 C26.2863333,16.609 26.054,15.708 26.054,14.416 C26.054,12.1266667 26.9833333,10.982 28.842,10.982 C30.7006667,10.982 31.63,12.1266667 31.63,14.416 C31.63,15.708 31.4033333,16.609 30.95,17.119 C30.4966667,17.629 29.794,17.884 28.842,17.884 Z M18.268,21.76 C18.744,21.76 19.0896667,21.6353333 19.305,21.386 C19.5203333,21.1366667 19.628,20.5926667 19.628,19.754 C19.628,19.006 19.5146667,18.4676667 19.288,18.139 C19.0613333,17.8103333 18.7213333,17.646 18.268,17.646 L18.268,17.646 L13.882,17.646 C13.406,17.646 13.0773333,17.816 12.896,18.156 C12.7146667,18.496 12.624,19.0626667 12.624,19.856 C12.624,20.604 12.7203333,21.1083333 12.913,21.369 C13.1056667,21.6296667 13.4286667,21.76 13.882,21.76 L13.882,21.76 L18.268,21.76 Z" id="تــمـ" fill="#242851" fill-rule="nonzero"></path>
            </g>
        </g>
    </g>
</svg>