<svg xmlns="http://www.w3.org/2000/svg" width="90" height="20.001" viewBox="0 0 90 20.001">
  <g id="Group_13" data-name="Group 13" transform="translate(-375 -31.999)">
    <path id="TAMM." d="M19.011,19.6H14.839L21.7,0h4.788l6.888,19.6h-4.2L28,16.072H20.188L19.012,19.6h0Zm5.1-15.149L21.421,12.46H26.8ZM73.444,19.6V6.888l-5.515,9.1H67.48L61.964,6.916V19.6H58.1V0h3.975L67.7,9.268,73.3,0H77.28V19.6Zm-22.82,0V6.888l-5.516,9.1H44.66L39.144,6.916V19.6H35.28V0h3.976l5.628,9.268L50.484,0H54.46V19.6Zm-45.36,0V3.7H0V0H14.42V3.7H9.128V19.6Z" transform="translate(375 32)" fill="#242851"/>
    <path id="Path" d="M4,8A3.851,3.851,0,0,0,6.824,6.824,3.851,3.851,0,0,0,8,4,3.851,3.851,0,0,0,6.824,1.176,3.851,3.851,0,0,0,4,0,3.851,3.851,0,0,0,1.176,1.176,3.851,3.851,0,0,0,0,4,3.851,3.851,0,0,0,1.176,6.824,3.851,3.851,0,0,0,4,8Z" transform="translate(457 44)" fill="#fcb52d"/>
  </g>
</svg>
